<?xml version="1.0" encoding="UTF-8" standalone="no"?>
<!DOCTYPE svg PUBLIC "-//W3C//DTD SVG 1.1//EN"
 "http://www.w3.org/Graphics/SVG/1.1/DTD/svg11.dtd">
<!-- Generated by graphviz version 2.43.0 (0)
 -->
<!-- Title: C4 Pages: 1 -->
<svg width="2798pt" height="900pt"
 viewBox="0.00 0.00 2798.20 900.32" xmlns="http://www.w3.org/2000/svg" xmlns:xlink="http://www.w3.org/1999/xlink">
<g id="graph0" class="graph" transform="scale(1 1) rotate(0) translate(21.6 878.72)">
<title>C4</title>
<polygon fill="white" stroke="transparent" points="-21.6,21.6 -21.6,-878.72 2776.6,-878.72 2776.6,21.6 -21.6,21.6"/>
<text text-anchor="middle" x="1377.5" y="-838.72" font-family="Arial" font-size="18.00">Component Vault — Container View</text>
<g id="clust1" class="cluster">
<title>cluster_SYS1</title>
<path fill="#ffffff" stroke="#000000" stroke-width="1.2" d="M486,-8C486,-8 1985,-8 1985,-8 1991,-8 1997,-14 1997,-20 1997,-20 1997,-583.25 1997,-583.25 1997,-589.25 1991,-595.25 1985,-595.25 1985,-595.25 486,-595.25 486,-595.25 480,-595.25 474,-589.25 474,-583.25 474,-583.25 474,-20 474,-20 474,-14 480,-8 486,-8"/>
<text text-anchor="middle" x="1235.5" y="-576.85" font-family="Arial" font-size="18.00">Software System: bodesign Server</text>
<text text-anchor="middle" x="1235.5" y="-556.85" font-family="Arial" font-size="18.00">Host&#45;agnostic MCP + HTTP server for PCB design lifecycle</text>
</g>
<g id="clust2" class="cluster">
<title>cluster_legend</title>
<path fill="white" stroke="#94a3b8" stroke-dasharray="5,2" d="M2539,-366.25C2539,-366.25 2735,-366.25 2735,-366.25 2741,-366.25 2747,-372.25 2747,-378.25 2747,-378.25 2747,-809.12 2747,-809.12 2747,-815.12 2741,-821.12 2735,-821.12 2735,-821.12 2539,-821.12 2539,-821.12 2533,-821.12 2527,-815.12 2527,-809.12 2527,-809.12 2527,-378.25 2527,-378.25 2527,-372.25 2533,-366.25 2539,-366.25"/>
<text text-anchor="middle" x="2637" y="-802.72" font-family="Arial" font-size="18.00">Legend</text>
</g>
<!-- CT1 -->
<g id="node1" class="node">
<title>CT1</title>
<path fill="#438dd4" stroke="#3e82c5" d="M1401,-539.25C1401,-539.25 1101,-539.25 1101,-539.25 1095,-539.25 1089,-533.25 1089,-527.25 1089,-527.25 1089,-489.25 1089,-489.25 1089,-483.25 1095,-477.25 1101,-477.25 1101,-477.25 1401,-477.25 1401,-477.25 1407,-477.25 1413,-483.25 1413,-489.25 1413,-489.25 1413,-527.25 1413,-527.25 1413,-533.25 1407,-539.25 1401,-539.25"/>
<text text-anchor="middle" x="1251" y="-523.45" font-family="Arial" font-size="11.00" fill="#ffffff">Container: services/api</text>
<text text-anchor="middle" x="1251" y="-511.45" font-family="Arial" font-size="11.00" fill="#ffffff">API</text>
<text text-anchor="middle" x="1251" y="-499.45" font-family="Arial" font-size="11.00" fill="#ffffff">FastAPI/Python</text>
<text text-anchor="middle" x="1251" y="-487.45" font-family="Arial" font-size="11.00" fill="#ffffff">Vault HTTP endpoints: ingest, query, import, knowledge queue</text>
</g>
<!-- CT3 -->
<g id="node3" class="node">
<title>CT3</title>
<path fill="#438dd4" stroke="#3e82c5" d="M1760,-307.25C1760,-307.25 1070,-307.25 1070,-307.25 1064,-307.25 1058,-301.25 1058,-295.25 1058,-295.25 1058,-269.25 1058,-269.25 1058,-263.25 1064,-257.25 1070,-257.25 1070,-257.25 1760,-257.25 1760,-257.25 1766,-257.25 1772,-263.25 1772,-269.25 1772,-269.25 1772,-295.25 1772,-295.25 1772,-301.25 1766,-307.25 1760,-307.25"/>
<text text-anchor="middle" x="1415" y="-291.45" font-family="Arial" font-size="11.00" fill="#ffffff">Container: component&#45;kb vault engine</text>
<text text-anchor="middle" x="1415" y="-279.45" font-family="Arial" font-size="11.00" fill="#ffffff">Python package (moduleRef A1&#45;A5)</text>
<text text-anchor="middle" x="1415" y="-267.45" font-family="Arial" font-size="11.00" fill="#ffffff">Identity resolution, document ingest, chunk extraction, spec normalization, knowledge serving; contains storage.py + repository.py + vault.py gate</text>
</g>
<!-- CT1&#45;&gt;CT3 -->
<g id="edge6" class="edge">
<title>CT1&#45;&gt;CT3</title>
<path fill="none" stroke="#475569" d="M1270.74,-477C1297.77,-435.57 1343,-366.25 1343,-366.25 1343,-366.25 1368.85,-336.45 1389.57,-312.56"/>
<polygon fill="#475569" stroke="#475569" points="1391.44,-314.15 1394.17,-307.26 1387.74,-310.94 1391.44,-314.15"/>
<text text-anchor="middle" x="1401.5" y="-395.25" font-family="Arial" font-size="10.00" fill="#334155">Delegates vault operations</text>
<text text-anchor="middle" x="1401.5" y="-384.25" font-family="Arial" font-size="10.00" fill="#334155">in&#45;process</text>
</g>
<!-- CT2 -->
<g id="node2" class="node">
<title>CT2</title>
<path fill="#438dd4" stroke="#3e82c5" d="M1653.5,-539.25C1653.5,-539.25 1474.5,-539.25 1474.5,-539.25 1468.5,-539.25 1462.5,-533.25 1462.5,-527.25 1462.5,-527.25 1462.5,-489.25 1462.5,-489.25 1462.5,-483.25 1468.5,-477.25 1474.5,-477.25 1474.5,-477.25 1653.5,-477.25 1653.5,-477.25 1659.5,-477.25 1665.5,-483.25 1665.5,-489.25 1665.5,-489.25 1665.5,-527.25 1665.5,-527.25 1665.5,-533.25 1659.5,-539.25 1653.5,-539.25"/>
<text text-anchor="middle" x="1564" y="-523.45" font-family="Arial" font-size="11.00" fill="#ffffff">Container: services/mcp</text>
<text text-anchor="middle" x="1564" y="-511.45" font-family="Arial" font-size="11.00" fill="#ffffff">API</text>
<text text-anchor="middle" x="1564" y="-499.45" font-family="Arial" font-size="11.00" fill="#ffffff">MCP server (Unix socket/TCP)</text>
<text text-anchor="middle" x="1564" y="-487.45" font-family="Arial" font-size="11.00" fill="#ffffff">Vault MCP tools for IDE/agent callers</text>
</g>
<!-- CT2&#45;&gt;CT3 -->
<g id="edge7" class="edge">
<title>CT2&#45;&gt;CT3</title>
<path fill="none" stroke="#475569" d="M1543.91,-477.04C1515.44,-434.24 1463.67,-356.41 1435.16,-313.56"/>
<polygon fill="#475569" stroke="#475569" points="1437.05,-311.97 1431.13,-307.5 1432.97,-314.69 1437.05,-311.97"/>
<text text-anchor="middle" x="1557.5" y="-395.25" font-family="Arial" font-size="10.00" fill="#334155">Delegates vault operations</text>
<text text-anchor="middle" x="1557.5" y="-384.25" font-family="Arial" font-size="10.00" fill="#334155">in&#45;process</text>
</g>
<!-- CT4 -->
<g id="node4" class="node">
<title>CT4</title>
<path fill="#438dd4" stroke="#3e82c5" d="M1172,-93.6C1172,-97.89 1017.37,-101.38 827,-101.38 636.63,-101.38 482,-97.89 482,-93.6 482,-93.6 482,-23.65 482,-23.65 482,-19.36 636.63,-15.87 827,-15.87 1017.37,-15.87 1172,-19.36 1172,-23.65 1172,-23.65 1172,-93.6 1172,-93.6"/>
<path fill="none" stroke="#3e82c5" d="M1172,-93.6C1172,-89.31 1017.37,-85.83 827,-85.83 636.63,-85.83 482,-89.31 482,-93.6"/>
<text text-anchor="middle" x="827" y="-73.83" font-family="Arial" font-size="11.00" fill="#ffffff">Container: vault.db</text>
<text text-anchor="middle" x="827" y="-61.83" font-family="Arial" font-size="11.00" fill="#ffffff">Database</text>
<text text-anchor="middle" x="827" y="-49.83" font-family="Arial" font-size="11.00" fill="#ffffff">SQLite + FTS5 (WAL) on docker volume</text>
<text text-anchor="middle" x="827" y="-37.83" font-family="Arial" font-size="11.00" fill="#ffffff">8&#45;layer schema: components/aliases, documents, chunks+FTS, spec_values EAV, eda_assets, app_knowledge, gaps/audit, usage/sourcing</text>
</g>
<!-- CT3&#45;&gt;CT4 -->
<g id="edge8" class="edge">
<title>CT3&#45;&gt;CT4</title>
<path fill="none" stroke="#475569" d="M1324.7,-257.22C1223.37,-230.26 1073,-190.25 1073,-190.25 1073,-190.25 983.02,-142.47 911.9,-104.71"/>
<polygon fill="#475569" stroke="#475569" points="912.84,-102.43 905.51,-101.31 910.55,-106.76 912.84,-102.43"/>
<text text-anchor="middle" x="1239" y="-182.25" font-family="Arial" font-size="10.00" fill="#334155">Reads/writes 8&#45;layer schema; triggers enforce evidence + append&#45;only audit</text>
<text text-anchor="middle" x="1239" y="-171.25" font-family="Arial" font-size="10.00" fill="#334155">SQLite WAL</text>
</g>
<!-- CT5 -->
<g id="node5" class="node">
<title>CT5</title>
<path fill="#438dd4" stroke="#3e82c5" d="M1603.5,-83.62C1603.5,-83.62 1226.5,-83.62 1226.5,-83.62 1220.5,-83.62 1214.5,-77.62 1214.5,-71.62 1214.5,-71.62 1214.5,-45.62 1214.5,-45.62 1214.5,-39.62 1220.5,-33.62 1226.5,-33.62 1226.5,-33.62 1603.5,-33.62 1603.5,-33.62 1609.5,-33.62 1615.5,-39.62 1615.5,-45.62 1615.5,-45.62 1615.5,-71.62 1615.5,-71.62 1615.5,-77.62 1609.5,-83.62 1603.5,-83.62"/>
<text text-anchor="middle" x="1415" y="-67.83" font-family="Arial" font-size="11.00" fill="#ffffff">Container: blob store</text>
<text text-anchor="middle" x="1415" y="-55.83" font-family="Arial" font-size="11.00" fill="#ffffff">sha256&#45;addressed directory on docker volume</text>
<text text-anchor="middle" x="1415" y="-43.83" font-family="Arial" font-size="11.00" fill="#ffffff">Datasheet PDFs, app notes, 3D models; DB keeps sha256 + relative path only</text>
</g>
<!-- CT3&#45;&gt;CT5 -->
<g id="edge9" class="edge">
<title>CT3&#45;&gt;CT5</title>
<path fill="none" stroke="#475569" d="M1415,-257.11C1415,-216.73 1415,-135.51 1415,-90.84"/>
<polygon fill="#475569" stroke="#475569" points="1417.45,-90.73 1415,-83.73 1412.55,-90.73 1417.45,-90.73"/>
<text text-anchor="middle" x="1531.5" y="-182.25" font-family="Arial" font-size="10.00" fill="#334155">Writes blob before DB commit; reads for re&#45;extraction</text>
<text text-anchor="middle" x="1531.5" y="-171.25" font-family="Arial" font-size="10.00" fill="#334155">filesystem</text>
</g>
<!-- CT6 -->
<g id="node6" class="node">
<title>CT6</title>
<path fill="#438dd4" stroke="#3e82c5" d="M1977,-83.62C1977,-83.62 1671,-83.62 1671,-83.62 1665,-83.62 1659,-77.62 1659,-71.62 1659,-71.62 1659,-45.62 1659,-45.62 1659,-39.62 1665,-33.62 1671,-33.62 1671,-33.62 1977,-33.62 1977,-33.62 1983,-33.62 1989,-39.62 1989,-45.62 1989,-45.62 1989,-71.62 1989,-71.62 1989,-77.62 1983,-83.62 1977,-83.62"/>
<text text-anchor="middle" x="1824" y="-67.83" font-family="Arial" font-size="11.00" fill="#ffffff">Container: doc&#45;core chunk extractor</text>
<text text-anchor="middle" x="1824" y="-55.83" font-family="Arial" font-size="11.00" fill="#ffffff">Python package (docxmcp&#45;style)</text>
<text text-anchor="middle" x="1824" y="-43.83" font-family="Arial" font-size="11.00" fill="#ffffff">Decomposes documents into evidence&#45;anchored source chunks</text>
</g>
<!-- CT3&#45;&gt;CT6 -->
<g id="edge10" class="edge">
<title>CT3&#45;&gt;CT6</title>
<path fill="none" stroke="#475569" d="M1479.16,-257.22C1551.16,-230.26 1658,-190.25 1658,-190.25 1658,-190.25 1738.48,-126.92 1787.37,-88.45"/>
<polygon fill="#475569" stroke="#475569" points="1789.18,-90.14 1793.17,-83.89 1786.15,-86.29 1789.18,-90.14"/>
<text text-anchor="middle" x="1809" y="-182.25" font-family="Arial" font-size="10.00" fill="#334155">Requests chunk decomposition with provenance anchors</text>
<text text-anchor="middle" x="1809" y="-171.25" font-family="Arial" font-size="10.00" fill="#334155">in&#45;process</text>
</g>
<!-- P1 -->
<g id="node7" class="node">
<title>P1</title>
<ellipse fill="#999999" stroke="#8a8a8a" cx="1410" cy="-767.12" rx="248.8" ry="26.74"/>
<text text-anchor="middle" x="1410" y="-770.32" font-family="Arial" font-size="11.00" fill="#ffffff">Person: Design Engineer</text>
<text text-anchor="middle" x="1410" y="-758.32" font-family="Arial" font-size="11.00" fill="#ffffff">Drives bodesign through MCP&#45;capable IDE/agent or web dashboard</text>
</g>
<!-- P1&#45;&gt;CT1 -->
<g id="edge5" class="edge">
<title>P1&#45;&gt;CT1</title>
<path fill="none" stroke="#475569" d="M1364.75,-740.5C1316.21,-713.01 1246,-673.25 1246,-673.25 1246,-673.25 1246,-637.25 1246,-637.25 1246,-637.25 1248.07,-584.38 1249.54,-546.6"/>
<polygon fill="#475569" stroke="#475569" points="1252,-546.35 1249.83,-539.26 1247.11,-546.16 1252,-546.35"/>
<text text-anchor="middle" x="1367.5" y="-658.25" font-family="Arial" font-size="10.00" fill="#334155">Browses knowledge queue / completeness via web API</text>
<text text-anchor="middle" x="1367.5" y="-647.25" font-family="Arial" font-size="10.00" fill="#334155">HTTPS</text>
</g>
<!-- P1&#45;&gt;CT2 -->
<g id="edge4" class="edge">
<title>P1&#45;&gt;CT2</title>
<path fill="none" stroke="#475569" d="M1434.79,-740.25C1461.13,-712.77 1499,-673.25 1499,-673.25 1499,-673.25 1530.3,-594.28 1549.46,-545.94"/>
<polygon fill="#475569" stroke="#475569" points="1551.78,-546.74 1552.08,-539.33 1547.22,-544.93 1551.78,-546.74"/>
<text text-anchor="middle" x="1626" y="-658.25" font-family="Arial" font-size="10.00" fill="#334155">Invokes vault MCP tools (ingest/query/spec_check)</text>
<text text-anchor="middle" x="1626" y="-647.25" font-family="Arial" font-size="10.00" fill="#334155">MCP</text>
</g>
<!-- SYS2 -->
<g id="node8" class="node">
<title>SYS2</title>
<path fill="#999999" stroke="#8a8a8a" d="M454,-527.25C454,-527.25 12,-527.25 12,-527.25 6,-527.25 0,-521.25 0,-515.25 0,-515.25 0,-501.25 0,-501.25 0,-495.25 6,-489.25 12,-489.25 12,-489.25 454,-489.25 454,-489.25 460,-489.25 466,-495.25 466,-501.25 466,-501.25 466,-515.25 466,-515.25 466,-521.25 460,-527.25 454,-527.25"/>
<text text-anchor="middle" x="233" y="-511.45" font-family="Arial" font-size="11.00" fill="#ffffff">Software System: Client Project Folder</text>
<text text-anchor="middle" x="233" y="-499.45" font-family="Arial" font-size="11.00" fill="#ffffff">Client&#45;owned KiCad project with datasheets/ skill cache (datasheets/extracted/manifest.json)</text>
</g>
<!-- SYS2&#45;&gt;CT3 -->
<g id="edge11" class="edge">
<title>SYS2&#45;&gt;CT3</title>
<path fill="none" stroke="#475569" d="M315.09,-489.25C488.43,-451.24 876,-366.25 876,-366.25 876,-366.25 1093.4,-332.77 1252.06,-308.34"/>
<polygon fill="#475569" stroke="#475569" points="1252.55,-310.74 1259.1,-307.26 1251.81,-305.9 1252.55,-310.74"/>
<text text-anchor="middle" x="1090" y="-395.25" font-family="Arial" font-size="10.00" fill="#334155">Client cache import (explicit, marked client&#45;cache&#45;import; conflicts kept, never silently overwritten)</text>
<text text-anchor="middle" x="1090" y="-384.25" font-family="Arial" font-size="10.00" fill="#334155">MCP import API</text>
</g>
<!-- SYS3 -->
<g id="node9" class="node">
<title>SYS3</title>
<path fill="#999999" stroke="#8a8a8a" d="M2455,-527.25C2455,-527.25 2017,-527.25 2017,-527.25 2011,-527.25 2005,-521.25 2005,-515.25 2005,-515.25 2005,-501.25 2005,-501.25 2005,-495.25 2011,-489.25 2017,-489.25 2017,-489.25 2455,-489.25 2455,-489.25 2461,-489.25 2467,-495.25 2467,-501.25 2467,-501.25 2467,-515.25 2467,-515.25 2467,-521.25 2461,-527.25 2455,-527.25"/>
<text text-anchor="middle" x="2236" y="-511.45" font-family="Arial" font-size="11.00" fill="#ffffff">Software System: Distributor Services</text>
<text text-anchor="middle" x="2236" y="-499.45" font-family="Arial" font-size="11.00" fill="#ffffff">DigiKey/Mouser/LCSC/element14 — sourcing snapshots only, behind approval&#45;gated policy</text>
</g>
<!-- SYS3&#45;&gt;CT3 -->
<g id="edge12" class="edge">
<title>SYS3&#45;&gt;CT3</title>
<path fill="none" stroke="#475569" d="M2169.86,-489.2C2024.85,-449.64 1678.51,-355.14 1510.14,-309.21"/>
<polygon fill="#475569" stroke="#475569" points="1510.64,-306.8 1503.24,-307.33 1509.35,-311.53 1510.64,-306.8"/>
<text text-anchor="middle" x="2021.5" y="-395.25" font-family="Arial" font-size="10.00" fill="#334155">Sourcing snapshots (timestamped, approval&#45;gated; no live query)</text>
<text text-anchor="middle" x="2021.5" y="-384.25" font-family="Arial" font-size="10.00" fill="#334155">distributor skills</text>
</g>
<!-- legend_1 -->
<g id="node10" class="node">
<title>legend_1</title>
<ellipse fill="#0d437b" stroke="#0d437b" cx="2637" cy="-767.12" rx="42.49" ry="18"/>
<text text-anchor="middle" x="2637" y="-763.42" font-family="Times,serif" font-size="14.00" fill="#ffffff">Person</text>
</g>
<!-- legend_2 -->
<g id="node11" class="node">
<title>legend_2</title>
<path fill="#1a67be" stroke="#175eaa" d="M2694.5,-673.25C2694.5,-673.25 2579.5,-673.25 2579.5,-673.25 2573.5,-673.25 2567.5,-667.25 2567.5,-661.25 2567.5,-661.25 2567.5,-649.25 2567.5,-649.25 2567.5,-643.25 2573.5,-637.25 2579.5,-637.25 2579.5,-637.25 2694.5,-637.25 2694.5,-637.25 2700.5,-637.25 2706.5,-643.25 2706.5,-649.25 2706.5,-649.25 2706.5,-661.25 2706.5,-661.25 2706.5,-667.25 2700.5,-673.25 2694.5,-673.25"/>
<text text-anchor="middle" x="2637" y="-651.55" font-family="Times,serif" font-size="14.00" fill="#ffffff">Software System</text>
</g>
<!-- legend_1&#45;&gt;legend_2 -->
<!-- legend_3 -->
<g id="node12" class="node">
<title>legend_3</title>
<path fill="#999999" stroke="#8a8a8a" d="M2727.5,-526.25C2727.5,-526.25 2546.5,-526.25 2546.5,-526.25 2540.5,-526.25 2534.5,-520.25 2534.5,-514.25 2534.5,-514.25 2534.5,-502.25 2534.5,-502.25 2534.5,-496.25 2540.5,-490.25 2546.5,-490.25 2546.5,-490.25 2727.5,-490.25 2727.5,-490.25 2733.5,-490.25 2739.5,-496.25 2739.5,-502.25 2739.5,-502.25 2739.5,-514.25 2739.5,-514.25 2739.5,-520.25 2733.5,-526.25 2727.5,-526.25"/>
<text text-anchor="middle" x="2637" y="-504.55" font-family="Times,serif" font-size="14.00" fill="#ffffff">External Software System</text>
</g>
<!-- legend_2&#45;&gt;legend_3 -->
<!-- legend_4 -->
<g id="node13" class="node">
<title>legend_4</title>
<path fill="#438dd4" stroke="#3e82c5" d="M2668.5,-410.25C2668.5,-410.25 2605.5,-410.25 2605.5,-410.25 2599.5,-410.25 2593.5,-404.25 2593.5,-398.25 2593.5,-398.25 2593.5,-386.25 2593.5,-386.25 2593.5,-380.25 2599.5,-374.25 2605.5,-374.25 2605.5,-374.25 2668.5,-374.25 2668.5,-374.25 2674.5,-374.25 2680.5,-380.25 2680.5,-386.25 2680.5,-386.25 2680.5,-398.25 2680.5,-398.25 2680.5,-404.25 2674.5,-410.25 2668.5,-410.25"/>
<text text-anchor="middle" x="2637" y="-388.55" font-family="Times,serif" font-size="14.00" fill="#ffffff">Container</text>
</g>
<!-- legend_3&#45;&gt;legend_4 -->
</g>
</svg>
